<svg width="46" height="33" viewBox="0 0 46 33" fill="none" xmlns="http://www.w3.org/2000/svg">
<path d="M30.2869 27.4033H14.81C14.6028 28.7113 13.9357 29.9024 12.9286 30.7625C11.9216 31.6225 10.6408 32.095 9.31645 32.095C7.99215 32.095 6.71129 31.6225 5.70427 30.7625C4.69725 29.9024 4.03016 28.7113 3.82295 27.4033H1.88594C1.39112 27.4001 0.917772 27.2008 0.569658 26.8491C0.221545 26.4974 0.0270845 26.0222 0.028948 25.5273V2.03735C0.026819 1.54235 0.22115 1.06674 0.569292 0.714844C0.917435 0.362952 1.39095 0.163574 1.88594 0.1604H27.437C27.9319 0.163574 28.4053 0.362923 28.7533 0.714844C29.1012 1.06676 29.2953 1.54244 29.293 2.03735V3.94238H36.414C36.4943 3.94204 36.5744 3.95248 36.652 3.97339C38.952 4.17339 40.109 5.3733 41.329 7.4353L44.888 13.5293C44.9728 13.674 45.0177 13.8386 45.018 14.0063V26.4644C45.019 26.7119 44.9218 26.9496 44.7476 27.1255C44.5734 27.3014 44.3365 27.401 44.0889 27.4023H41.275C41.0678 28.7103 40.4007 29.9014 39.3936 30.7615C38.3866 31.6215 37.1058 32.094 35.7815 32.094C34.4571 32.094 33.1763 31.6215 32.1693 30.7615C31.1622 29.9014 30.4952 28.7103 30.288 27.4023L30.2869 27.4033ZM32.065 26.4644C32.0729 27.1973 32.2974 27.9115 32.7103 28.5171C33.1232 29.1227 33.7061 29.5926 34.3855 29.8677C35.065 30.1428 35.8106 30.2107 36.5286 30.063C37.2465 29.9152 37.9047 29.5584 38.4203 29.0374C38.9359 28.5163 39.2859 27.8545 39.4261 27.135C39.5663 26.4155 39.4906 25.6707 39.2085 24.9941C38.9263 24.3176 38.4503 23.7398 37.8404 23.3333C37.2305 22.9267 36.514 22.7095 35.781 22.7092C34.7906 22.7156 33.8432 23.1147 33.1466 23.8186C32.4499 24.5225 32.061 25.474 32.065 26.4644ZM5.60097 26.4644C5.60886 27.1973 5.83339 27.9115 6.24632 28.5171C6.65926 29.1227 7.24213 29.5926 7.92156 29.8677C8.60098 30.1428 9.3466 30.2107 10.0646 30.063C10.7825 29.9152 11.4407 29.5584 11.9563 29.0374C12.4719 28.5163 12.8219 27.8545 12.9621 27.135C13.1024 26.4155 13.0266 25.6707 12.7445 24.9941C12.4623 24.3176 11.9863 23.7398 11.3764 23.3333C10.7665 22.9267 10.0499 22.7095 9.31694 22.7092C8.32642 22.7153 7.37878 23.1141 6.68193 23.8181C5.98509 24.5221 5.59597 25.4738 5.59996 26.4644H5.60097ZM41.273 25.5264H43.159V19.9082H40.423C40.3004 19.9077 40.1791 19.8831 40.066 19.8357C39.9529 19.7883 39.8503 19.719 39.764 19.6318C39.6777 19.5447 39.6095 19.4414 39.5632 19.3279C39.5168 19.2144 39.4933 19.0928 39.4939 18.9702V17.1233C39.4937 16.4027 39.7692 15.7092 40.264 15.1853H33.885C33.8077 15.1852 33.7308 15.1754 33.656 15.1562C32.9512 15.0934 32.2957 14.7685 31.8191 14.2456C31.3425 13.7227 31.0794 13.0398 31.082 12.3323V7.63232C31.0813 7.50967 31.1048 7.38798 31.1511 7.27441C31.1975 7.16084 31.2657 7.05765 31.352 6.97046C31.4382 6.88326 31.5408 6.8139 31.6539 6.76636C31.767 6.71881 31.8883 6.69401 32.0109 6.69336H38.4939C38.1496 6.37468 37.7423 6.13163 37.2982 5.98022C36.8541 5.82882 36.3832 5.77227 35.9159 5.81421H29.293V25.5222H30.2869C30.4941 24.2142 31.1613 23.0231 32.1683 22.1631C33.1753 21.303 34.4561 20.8306 35.7804 20.8306C37.1048 20.8306 38.3856 21.303 39.3926 22.1631C40.3996 23.0231 41.0667 24.2142 41.2739 25.5222L41.273 25.5264ZM14.8089 25.5264H27.436V2.03638H1.88594V25.5264H3.82295C4.03016 24.2184 4.69725 23.027 5.70427 22.167C6.71129 21.3069 7.99215 20.8345 9.31645 20.8345C10.6408 20.8345 11.9216 21.3069 12.9286 22.167C13.9357 23.027 14.6028 24.2184 14.81 25.5264H14.8089ZM41.351 17.1262V18.0354H43.159V16.1882H42.28C42.0331 16.1898 41.7969 16.2892 41.623 16.4644C41.4491 16.6396 41.3517 16.8764 41.3519 17.1233L41.351 17.1262ZM32.9379 12.3342C32.9369 12.5867 33.036 12.8295 33.2135 13.009C33.391 13.1886 33.6325 13.2904 33.885 13.2922C33.9488 13.2921 34.0125 13.2988 34.075 13.3123H42.6L39.834 8.57642H32.9339L32.9379 12.3342ZM33.031 26.4663C33.028 25.7338 33.3158 25.0299 33.8312 24.5093C34.3466 23.9887 35.0474 23.6937 35.78 23.6892C36.0287 23.6892 36.2673 23.7882 36.4432 23.9641C36.6191 24.14 36.7179 24.3784 36.7179 24.6272C36.7179 24.876 36.6191 25.1146 36.4432 25.2905C36.2673 25.4664 36.0287 25.5652 35.78 25.5652C35.6016 25.5636 35.4268 25.6152 35.2778 25.7131C35.1287 25.8111 35.0121 25.9509 34.9428 26.1152C34.8735 26.2795 34.8545 26.4609 34.8883 26.636C34.9221 26.8111 35.0072 26.9722 35.1327 27.0989C35.2583 27.2255 35.4186 27.312 35.5934 27.3474C35.7682 27.3828 35.9496 27.3655 36.1145 27.2976C36.2794 27.2297 36.4205 27.1142 36.5197 26.9661C36.619 26.8179 36.6719 26.6437 36.672 26.4653C36.672 26.2191 36.7698 25.983 36.9439 25.8088C37.118 25.6347 37.3542 25.5369 37.6005 25.5369C37.8467 25.5369 38.0829 25.6347 38.257 25.8088C38.4311 25.983 38.5289 26.2191 38.5289 26.4653C38.5289 27.1947 38.2392 27.8942 37.7235 28.4099C37.2078 28.9256 36.5083 29.2153 35.7789 29.2153C35.0496 29.2153 34.3501 28.9256 33.8344 28.4099C33.3187 27.8942 33.0289 27.1947 33.0289 26.4653L33.031 26.4663ZM6.56694 26.4663C6.56401 25.7338 6.85184 25.0299 7.3672 24.5093C7.88257 23.9887 8.58342 23.6937 9.31597 23.6892C9.56474 23.6892 9.80333 23.7882 9.97923 23.9641C10.1551 24.14 10.254 24.3784 10.254 24.6272C10.254 24.876 10.1551 25.1146 9.97923 25.2905C9.80333 25.4664 9.56474 25.5652 9.31597 25.5652C9.13763 25.5636 8.96282 25.6152 8.81377 25.7131C8.66472 25.8111 8.54812 25.9509 8.47878 26.1152C8.40943 26.2795 8.39045 26.4609 8.42427 26.636C8.45809 26.8111 8.54318 26.9722 8.66872 27.0989C8.79426 27.2255 8.95461 27.312 9.12941 27.3474C9.30421 27.3828 9.48558 27.3655 9.6505 27.2976C9.81542 27.2297 9.95646 27.1142 10.0557 26.9661C10.155 26.8179 10.208 26.6437 10.208 26.4653C10.208 26.2191 10.3058 25.983 10.4799 25.8088C10.654 25.6347 10.8902 25.5369 11.1365 25.5369C11.3827 25.5369 11.6189 25.6347 11.793 25.8088C11.9671 25.983 12.065 26.2191 12.065 26.4653C12.065 27.1947 11.7752 27.8942 11.2595 28.4099C10.7438 28.9256 10.0443 29.2153 9.31496 29.2153C8.58561 29.2153 7.88613 28.9256 7.37041 28.4099C6.85468 27.8942 6.56496 27.1947 6.56496 26.4653L6.56694 26.4663ZM4.70897 5.82031C4.4602 5.82031 4.22161 5.72156 4.0457 5.54565C3.86979 5.36975 3.77095 5.1311 3.77095 4.88232C3.77095 4.63355 3.86979 4.3949 4.0457 4.21899C4.22161 4.04309 4.4602 3.94434 4.70897 3.94434H24.609C24.8577 3.94434 25.0963 4.04309 25.2722 4.21899C25.4481 4.3949 25.547 4.63355 25.547 4.88232C25.547 5.1311 25.4481 5.36975 25.2722 5.54565C25.0963 5.72156 24.8577 5.82031 24.609 5.82031H4.70897Z" fill="#F16D7F"/>
</svg>
